<svg xmlns="http://www.w3.org/2000/svg" viewBox="0 0 32 32" width="32" height="32">
  <defs>
    <linearGradient id="droneBodyGradAnim" x1="0%" y1="0%" x2="100%" y2="100%">
      <stop offset="0%" style="stop-color:#0c4a6e;stop-opacity:1" />
      <stop offset="50%" style="stop-color:#0369a1;stop-opacity:1" />
      <stop offset="100%" style="stop-color:#0284c7;stop-opacity:1" />
    </linearGradient>
    <linearGradient id="propGradAnim" x1="0%" y1="0%" x2="100%" y2="100%">
      <stop offset="0%" style="stop-color:#075985;stop-opacity:0.8" />
      <stop offset="100%" style="stop-color:#0c4a6e;stop-opacity:0.6" />
    </linearGradient>
    <style>
      .propeller-1, .propeller-4 {
        animation: rotate-fast 0.2s linear infinite;
        transform-origin: center;
      }
      .propeller-2, .propeller-3 {
        animation: rotate-fast-reverse 0.2s linear infinite;
        transform-origin: center;
      }
      .led-blink {
        animation: blink 1s ease-in-out infinite;
      }
      
      @keyframes rotate-fast {
        from { transform: rotate(0deg); }
        to { transform: rotate(360deg); }
      }
      
      @keyframes rotate-fast-reverse {
        from { transform: rotate(0deg); }
        to { transform: rotate(-360deg); }
      }
      
      @keyframes blink {
        0%, 100% { opacity: 1; }
        50% { opacity: 0.3; }
      }
      
      @media (prefers-reduced-motion: reduce) {
        .propeller-1, .propeller-2, .propeller-3, .propeller-4 {
          animation: none;
        }
        .led-blink {
          animation: none;
        }
      }
    </style>
  </defs>
  
  <!-- Fondo circular -->
  <circle cx="16" cy="16" r="15" fill="#ffffff" stroke="#0c4a6e" stroke-width="2"/>
  
  <!-- Cuerpo del dron -->
  <ellipse cx="16" cy="16" rx="6" ry="3" fill="url(#droneBodyGradAnim)"/>
  
  <!-- Brazos del dron -->
  <rect x="6" y="15" width="20" height="2" rx="1" fill="url(#droneBodyGradAnim)"/>
  <rect x="15" y="6" width="2" height="20" rx="1" fill="url(#droneBodyGradAnim)"/>
  
  <!-- Hélices animadas -->
  <g class="propeller-1" style="transform-origin: 10px 10px;">
    <circle cx="10" cy="10" r="3" fill="url(#propGradAnim)" opacity="0.7"/>
    <ellipse cx="10" cy="10" rx="2.5" ry="0.8" fill="url(#propGradAnim)"/>
    <ellipse cx="10" cy="10" rx="0.8" ry="2.5" fill="url(#propGradAnim)"/>
    <circle cx="10" cy="10" r="0.8" fill="#0c4a6e"/>
  </g>
  
  <g class="propeller-2" style="transform-origin: 22px 10px;">
    <circle cx="22" cy="10" r="3" fill="url(#propGradAnim)" opacity="0.7"/>
    <ellipse cx="22" cy="10" rx="2.5" ry="0.8" fill="url(#propGradAnim)"/>
    <ellipse cx="22" cy="10" rx="0.8" ry="2.5" fill="url(#propGradAnim)"/>
    <circle cx="22" cy="10" r="0.8" fill="#0c4a6e"/>
  </g>
  
  <g class="propeller-3" style="transform-origin: 10px 22px;">
    <circle cx="10" cy="22" r="3" fill="url(#propGradAnim)" opacity="0.7"/>
    <ellipse cx="10" cy="22" rx="2.5" ry="0.8" fill="url(#propGradAnim)"/>
    <ellipse cx="10" cy="22" rx="0.8" ry="2.5" fill="url(#propGradAnim)"/>
    <circle cx="10" cy="22" r="0.8" fill="#0c4a6e"/>
  </g>
  
  <g class="propeller-4" style="transform-origin: 22px 22px;">
    <circle cx="22" cy="22" r="3" fill="url(#propGradAnim)" opacity="0.7"/>
    <ellipse cx="22" cy="22" rx="2.5" ry="0.8" fill="url(#propGradAnim)"/>
    <ellipse cx="22" cy="22" rx="0.8" ry="2.5" fill="url(#propGradAnim)"/>
    <circle cx="22" cy="22" r="0.8" fill="#0c4a6e"/>
  </g>
  
  <!-- Cámara central -->
  <circle cx="16" cy="16" r="2" fill="#0c4a6e"/>
  <circle cx="16" cy="16" r="1" fill="#60a5fa"/>
  
  <!-- LEDs parpadeantes -->
  <circle cx="10" cy="10" r="0.5" fill="#ef4444" class="led-blink"/>
  <circle cx="22" cy="10" r="0.5" fill="#22c55e" class="led-blink"/>
  <circle cx="10" cy="22" r="0.5" fill="#22c55e" class="led-blink"/>
  <circle cx="22" cy="22" r="0.5" fill="#ef4444" class="led-blink"/>
</svg>
