<svg viewBox="0 0 32 32" xmlns="http://www.w3.org/2000/svg">
  <defs>
    <linearGradient id="droneBodyGrad" x1="0%" y1="0%" x2="100%" y2="100%">
      <stop offset="0%" style="stop-color:#0c4a6e;stop-opacity:1" />
      <stop offset="50%" style="stop-color:#0369a1;stop-opacity:1" />
      <stop offset="100%" style="stop-color:#0284c7;stop-opacity:1" />
    </linearGradient>
    <linearGradient id="propGrad" x1="0%" y1="0%" x2="100%" y2="100%">
      <stop offset="0%" style="stop-color:#075985;stop-opacity:0.8" />
      <stop offset="100%" style="stop-color:#0c4a6e;stop-opacity:0.6" />
    </linearGradient>
  </defs>
  
  <!-- Fondo circular -->
  <circle cx="16" cy="16" r="15" fill="#ffffff" stroke="#0c4a6e" stroke-width="2"/>
  
  <!-- Cuerpo del dron -->
  <ellipse cx="16" cy="16" rx="6" ry="3" fill="url(#droneBodyGrad)"/>
  
  <!-- Brazos del dron -->
  <rect x="6" y="15" width="20" height="2" rx="1" fill="url(#droneBodyGrad)"/>
  <rect x="15" y="6" width="2" height="20" rx="1" fill="url(#droneBodyGrad)"/>
  
  <!-- Hélices -->
  <g>
    <!-- Hélice superior izquierda -->
    <circle cx="10" cy="10" r="3" fill="url(#propGrad)" opacity="0.7"/>
    <ellipse cx="10" cy="10" rx="2.5" ry="0.8" fill="url(#propGrad)"/>
    <ellipse cx="10" cy="10" rx="0.8" ry="2.5" fill="url(#propGrad)"/>
    <circle cx="10" cy="10" r="0.8" fill="#0c4a6e"/>
    
    <!-- Hélice superior derecha -->
    <circle cx="22" cy="10" r="3" fill="url(#propGrad)" opacity="0.7"/>
    <ellipse cx="22" cy="10" rx="2.5" ry="0.8" fill="url(#propGrad)"/>
    <ellipse cx="22" cy="10" rx="0.8" ry="2.5" fill="url(#propGrad)"/>
    <circle cx="22" cy="10" r="0.8" fill="#0c4a6e"/>
    
    <!-- Hélice inferior izquierda -->
    <circle cx="10" cy="22" r="3" fill="url(#propGrad)" opacity="0.7"/>
    <ellipse cx="10" cy="22" rx="2.5" ry="0.8" fill="url(#propGrad)"/>
    <ellipse cx="10" cy="22" rx="0.8" ry="2.5" fill="url(#propGrad)"/>
    <circle cx="10" cy="22" r="0.8" fill="#0c4a6e"/>
    
    <!-- Hélice inferior derecha -->
    <circle cx="22" cy="22" r="3" fill="url(#propGrad)" opacity="0.7"/>
    <ellipse cx="22" cy="22" rx="2.5" ry="0.8" fill="url(#propGrad)"/>
    <ellipse cx="22" cy="22" rx="0.8" ry="2.5" fill="url(#propGrad)"/>
    <circle cx="22" cy="22" r="0.8" fill="#0c4a6e"/>
  </g>
  
  <!-- Cámara central -->
  <circle cx="16" cy="16" r="2" fill="#0c4a6e"/>
  <circle cx="16" cy="16" r="1" fill="#60a5fa"/>
  
  <!-- LEDs -->
  <circle cx="10" cy="10" r="0.5" fill="#ef4444"/>
  <circle cx="22" cy="10" r="0.5" fill="#22c55e"/>
  <circle cx="10" cy="22" r="0.5" fill="#22c55e"/>
  <circle cx="22" cy="22" r="0.5" fill="#ef4444"/>
</svg>